# This file uses centimeters as units for non-parametric coordinates.

mtllib Unit_Sphere_v2.mtl
g default
v 1.283200 -1.814107 -0.531518
v 0.982119 -1.814107 -0.982118
v 0.531519 -1.814107 -1.283200
v 0.000001 -1.814107 -1.388926
v -0.531518 -1.814107 -1.283200
v -0.982118 -1.814107 -0.982119
v -1.283200 -1.814107 -0.531519
v -1.388926 -1.814107 -0.000000
v -1.283200 -1.814107 0.531518
v -0.982119 -1.814107 0.982118
v -0.531519 -1.814107 1.283200
v -0.000000 -1.814107 1.388926
v 0.531519 -1.814107 1.283200
v 0.982119 -1.814107 0.982119
v 1.283200 -1.814107 0.531519
v 1.388926 -1.814107 0.000000
v 1.920445 -1.124359 -0.795473
v 1.469845 -1.124359 -1.469844
v 0.795475 -1.124359 -1.920444
v 0.000001 -1.124359 -2.078674
v -0.795473 -1.124359 -1.920445
v -1.469844 -1.124359 -1.469845
v -1.920444 -1.124359 -0.795475
v -2.078674 -1.124359 -0.000001
v -1.920445 -1.124359 0.795474
v -1.469845 -1.124359 1.469844
v -0.795475 -1.124359 1.920444
v -0.000000 -1.124359 2.078674
v 0.795474 -1.124359 1.920444
v 1.469844 -1.124359 1.469845
v 1.920444 -1.124359 0.795474
v 2.078674 -1.124359 0.000000
v 2.265319 -0.223159 -0.938324
v 1.733801 -0.223159 -1.733799
v 0.938327 -0.223159 -2.265318
v 0.000001 -0.223159 -2.451962
v -0.938325 -0.223159 -2.265319
v -1.733799 -0.223159 -1.733801
v -2.265318 -0.223159 -0.938326
v -2.451963 -0.223159 -0.000001
v -2.265319 -0.223159 0.938325
v -1.733800 -0.223159 1.733800
v -0.938326 -0.223159 2.265319
v -0.000000 -0.223159 2.451962
v 0.938325 -0.223159 2.265319
v 1.733800 -0.223159 1.733800
v 2.265319 -0.223159 0.938326
v 2.451963 -0.223159 0.000000
v 2.265319 0.752292 -0.938324
v 1.733801 0.752292 -1.733799
v 0.938327 0.752292 -2.265318
v 0.000001 0.752292 -2.451962
v -0.938325 0.752292 -2.265319
v -1.733799 0.752292 -1.733801
v -2.265318 0.752292 -0.938326
v -2.451963 0.752292 -0.000001
v -2.265319 0.752292 0.938325
v -1.733800 0.752292 1.733800
v -0.938326 0.752292 2.265319
v -0.000000 0.752292 2.451962
v 0.938325 0.752292 2.265319
v 1.733800 0.752292 1.733800
v 2.265319 0.752292 0.938326
v 2.451963 0.752292 0.000000
v 1.920445 1.653492 -0.795473
v 1.469845 1.653492 -1.469844
v 0.795475 1.653492 -1.920444
v 0.000001 1.653492 -2.078674
v -0.795473 1.653492 -1.920445
v -1.469844 1.653492 -1.469845
v -1.920444 1.653492 -0.795475
v -2.078674 1.653492 -0.000001
v -1.920445 1.653492 0.795474
v -1.469845 1.653492 1.469844
v -0.795475 1.653492 1.920444
v -0.000000 1.653492 2.078674
v 0.795474 1.653492 1.920444
v 1.469844 1.653492 1.469845
v 1.920444 1.653492 0.795474
v 2.078674 1.653492 0.000000
v 1.283200 2.343240 -0.531518
v 0.982119 2.343240 -0.982118
v 0.531519 2.343240 -1.283200
v 0.000001 2.343240 -1.388926
v -0.531518 2.343240 -1.283200
v -0.982118 2.343240 -0.982119
v -1.283200 2.343240 -0.531519
v -1.388926 2.343240 -0.000000
v -1.283200 2.343240 0.531518
v -0.982119 2.343240 0.982118
v -0.531519 2.343240 1.283200
v -0.000000 2.343240 1.388926
v 0.531519 2.343240 1.283200
v 0.982119 2.343240 0.982119
v 1.283200 2.343240 0.531519
v 1.388926 2.343240 0.000000
v 0.000000 -2.492912 0.000000
v 0.000000 2.492912 0.000000
vt 0.872025 0.347115
vt 0.872025 0.409196
vt 0.810021 0.409196
vt 0.810021 0.347115
vt 0.934030 0.409196
vt 0.003966 0.347115
vt 0.003966 0.409196
vt 0.065970 0.347115
vt 0.065970 0.409196
vt 0.127975 0.347115
vt 0.127975 0.409196
vt 0.189979 0.347115
vt 0.189979 0.409196
vt 0.251983 0.347115
vt 0.251983 0.409196
vt 0.313987 0.347115
vt 0.313987 0.409196
vt 0.375992 0.347115
vt 0.375992 0.409196
vt 0.437996 0.347115
vt 0.437996 0.409196
vt 0.500000 0.347115
vt 0.500000 0.409196
vt 0.562004 0.347115
vt 0.562004 0.409196
vt 0.624009 0.347115
vt 0.624008 0.409196
vt 0.686013 0.347115
vt 0.686013 0.409196
vt 0.748017 0.347115
vt 0.748017 0.409196
vt 0.872025 0.471277
vt 0.810021 0.471277
vt 0.934030 0.471277
vt 0.003966 0.471277
vt 0.065970 0.471277
vt 0.127975 0.471277
vt 0.189979 0.471277
vt 0.251983 0.471277
vt 0.313987 0.471277
vt 0.375992 0.471277
vt 0.437996 0.471277
vt 0.500000 0.471277
vt 0.562004 0.471277
vt 0.624009 0.471277
vt 0.686013 0.471277
vt 0.748017 0.471277
vt 0.872025 0.533357
vt 0.810021 0.533357
vt 0.934030 0.533357
vt 0.003966 0.533357
vt 0.065970 0.533357
vt 0.127975 0.533357
vt 0.189979 0.533357
vt 0.251983 0.533357
vt 0.313987 0.533357
vt 0.375992 0.533357
vt 0.437996 0.533357
vt 0.500000 0.533357
vt 0.562004 0.533357
vt 0.624009 0.533357
vt 0.686013 0.533357
vt 0.748017 0.533357
vt 0.872025 0.595438
vt 0.810021 0.595438
vt 0.934030 0.595438
vt 0.003966 0.595438
vt 0.065970 0.595438
vt 0.127975 0.595438
vt 0.189979 0.595438
vt 0.251983 0.595438
vt 0.313987 0.595438
vt 0.375992 0.595438
vt 0.437996 0.595438
vt 0.500000 0.595438
vt 0.562004 0.595438
vt 0.624008 0.595438
vt 0.686013 0.595438
vt 0.748017 0.595438
vt 0.872025 0.657519
vt 0.810021 0.657519
vt 0.934030 0.657519
vt 0.003966 0.657519
vt 0.065970 0.657519
vt 0.127975 0.657519
vt 0.189979 0.657519
vt 0.251983 0.657519
vt 0.313987 0.657519
vt 0.375992 0.657519
vt 0.437996 0.657519
vt 0.500000 0.657519
vt 0.562004 0.657519
vt 0.624009 0.657519
vt 0.686013 0.657519
vt 0.748017 0.657519
vt 0.601496 0.846245
vt 0.593799 0.807550
vt 0.571880 0.774746
vt 0.539076 0.752827
vt 0.500381 0.745130
vt 0.461685 0.752827
vt 0.571639 0.228820
vt 0.593558 0.196016
vt 0.500140 0.157321
vt 0.538835 0.250739
vt 0.500140 0.258436
vt 0.461445 0.250739
vt 0.428640 0.228820
vt 0.406721 0.196016
vt 0.399024 0.157321
vt 0.406721 0.118626
vt 0.428640 0.085821
vt 0.461445 0.063902
vt 0.500140 0.056205
vt 0.538835 0.063902
vt 0.571639 0.085821
vt 0.593558 0.118626
vt 0.601255 0.157321
vt 0.571880 0.917745
vt 0.500381 0.846245
vt 0.593799 0.884941
vt 0.539076 0.939664
vt 0.500381 0.947361
vt 0.461686 0.939664
vt 0.428881 0.917745
vt 0.406962 0.884941
vt 0.399265 0.846245
vt 0.406962 0.807550
vt 0.428881 0.774746
vt 0.934030 0.347115
vt 0.996034 0.347115
vt 0.996034 0.409196
vt 0.996034 0.471277
vt 0.996034 0.533357
vt 0.996034 0.657519
vt 0.996034 0.595438
vn 0.310485 -0.898442 -0.310485
vn 0.405668 -0.898442 -0.168033
vn 0.000000 -1.000000 -0.000000
vn 0.168034 -0.898442 -0.405668
vn 0.000000 -0.898442 -0.439092
vn -0.168033 -0.898442 -0.405669
vn -0.310485 -0.898442 -0.310485
vn -0.405668 -0.898442 -0.168033
vn -0.439092 -0.898442 0.000000
vn -0.405668 -0.898442 0.168033
vn -0.310485 -0.898442 0.310485
vn -0.168033 -0.898442 0.405668
vn -0.000000 -0.898442 0.439092
vn 0.168033 -0.898442 0.405668
vn 0.310485 -0.898442 0.310485
vn 0.405668 -0.898442 0.168033
vn 0.439092 -0.898442 -0.000000
vn 0.500000 -0.707107 -0.500000
vn 0.500000 -0.707107 -0.500000
vn 0.653281 -0.707107 -0.270598
vn 0.653281 -0.707107 -0.270598
vn 0.270598 -0.707107 -0.653281
vn 0.270598 -0.707107 -0.653281
vn 0.000000 -0.707107 -0.707107
vn 0.000000 -0.707107 -0.707107
vn -0.270598 -0.707107 -0.653282
vn -0.270598 -0.707107 -0.653282
vn -0.500000 -0.707107 -0.500000
vn -0.500000 -0.707107 -0.500000
vn -0.653281 -0.707107 -0.270598
vn -0.653281 -0.707107 -0.270598
vn -0.707107 -0.707107 -0.000000
vn -0.707107 -0.707107 -0.000000
vn -0.653282 -0.707107 0.270598
vn -0.653282 -0.707107 0.270598
vn -0.500000 -0.707107 0.500000
vn -0.500000 -0.707107 0.500000
vn -0.270598 -0.707107 0.653281
vn -0.270598 -0.707107 0.653281
vn -0.000000 -0.707107 0.707107
vn -0.000000 -0.707107 0.707107
vn 0.270598 -0.707107 0.653281
vn 0.270598 -0.707107 0.653281
vn 0.500000 -0.707107 0.500000
vn 0.500000 -0.707107 0.500000
vn 0.653281 -0.707107 0.270598
vn 0.653281 -0.707107 0.270598
vn 0.707107 -0.707107 0.000000
vn 0.707107 -0.707107 0.000000
vn 0.653282 -0.382683 -0.653281
vn 0.653282 -0.382683 -0.653281
vn 0.853554 -0.382683 -0.353553
vn 0.853554 -0.382683 -0.353553
vn 0.353554 -0.382683 -0.853553
vn 0.353554 -0.382683 -0.853553
vn 0.000000 -0.382683 -0.923880
vn 0.000000 -0.382683 -0.923880
vn -0.353553 -0.382683 -0.853554
vn -0.353553 -0.382683 -0.853554
vn -0.653281 -0.382683 -0.653282
vn -0.653281 -0.382683 -0.653282
vn -0.853553 -0.382683 -0.353554
vn -0.853553 -0.382683 -0.353554
vn -0.923880 -0.382683 -0.000000
vn -0.923880 -0.382683 -0.000000
vn -0.853554 -0.382684 0.353553
vn -0.853554 -0.382684 0.353553
vn -0.653282 -0.382684 0.653281
vn -0.653282 -0.382684 0.653281
vn -0.353553 -0.382683 0.853553
vn -0.353553 -0.382683 0.853553
vn -0.000000 -0.382683 0.923880
vn -0.000000 -0.382683 0.923880
vn 0.353553 -0.382683 0.853554
vn 0.353553 -0.382683 0.853554
vn 0.653281 -0.382683 0.653282
vn 0.653281 -0.382683 0.653282
vn 0.853553 -0.382683 0.353553
vn 0.853553 -0.382683 0.353553
vn 0.923880 -0.382683 -0.000000
vn 0.923880 -0.382683 -0.000000
vn 0.707108 0.000000 -0.707106
vn 0.707108 0.000000 -0.707106
vn 0.923880 0.000000 -0.382683
vn 0.923880 0.000000 -0.382683
vn 0.382684 0.000000 -0.923879
vn 0.382684 0.000000 -0.923879
vn 0.000000 0.000000 -1.000000
vn 0.000000 0.000000 -1.000000
vn -0.382683 0.000000 -0.923880
vn -0.382683 0.000000 -0.923880
vn -0.707106 0.000000 -0.707107
vn -0.707106 0.000000 -0.707107
vn -0.923879 0.000000 -0.382684
vn -0.923879 0.000000 -0.382684
vn -1.000000 0.000000 -0.000000
vn -1.000000 0.000000 -0.000000
vn -0.923880 0.000000 0.382683
vn -0.923880 0.000000 0.382683
vn -0.707107 0.000000 0.707107
vn -0.707107 0.000000 0.707107
vn -0.382683 0.000000 0.923880
vn -0.382683 0.000000 0.923880
vn 0.000000 0.000000 1.000000
vn 0.000000 0.000000 1.000000
vn 0.382683 0.000000 0.923880
vn 0.382683 0.000000 0.923880
vn 0.707107 0.000000 0.707107
vn 0.707107 0.000000 0.707107
vn 0.923880 0.000000 0.382683
vn 0.923880 0.000000 0.382683
vn 1.000000 0.000000 -0.000000
vn 1.000000 0.000000 -0.000000
vn 0.653282 0.382683 -0.653281
vn 0.653282 0.382683 -0.653281
vn 0.853554 0.382683 -0.353553
vn 0.853554 0.382683 -0.353553
vn 0.353554 0.382684 -0.853553
vn 0.353554 0.382684 -0.853553
vn 0.000000 0.382683 -0.923880
vn 0.000000 0.382683 -0.923880
vn -0.353553 0.382683 -0.853554
vn -0.353553 0.382683 -0.853554
vn -0.653281 0.382683 -0.653282
vn -0.653281 0.382683 -0.653282
vn -0.853553 0.382683 -0.353554
vn -0.853553 0.382683 -0.353554
vn -0.923880 0.382683 -0.000000
vn -0.923880 0.382683 -0.000000
vn -0.853553 0.382684 0.353553
vn -0.853553 0.382684 0.353553
vn -0.653282 0.382684 0.653281
vn -0.653282 0.382684 0.653281
vn -0.353553 0.382683 0.853553
vn -0.353553 0.382683 0.853553
vn -0.000000 0.382683 0.923880
vn -0.000000 0.382683 0.923880
vn 0.353553 0.382683 0.853554
vn 0.353553 0.382683 0.853554
vn 0.653281 0.382683 0.653282
vn 0.653281 0.382683 0.653282
vn 0.853553 0.382683 0.353553
vn 0.853553 0.382683 0.353553
vn 0.923880 0.382683 -0.000000
vn 0.923880 0.382683 -0.000000
vn 0.500000 0.707107 -0.500000
vn 0.500000 0.707107 -0.500000
vn 0.653281 0.707107 -0.270598
vn 0.653281 0.707107 -0.270598
vn 0.270598 0.707107 -0.653281
vn 0.270598 0.707107 -0.653281
vn 0.000000 0.707107 -0.707107
vn 0.000000 0.707107 -0.707107
vn -0.270598 0.707107 -0.653282
vn -0.270598 0.707107 -0.653282
vn -0.500000 0.707107 -0.500000
vn -0.500000 0.707107 -0.500000
vn -0.653281 0.707107 -0.270598
vn -0.653281 0.707107 -0.270598
vn -0.707107 0.707107 -0.000000
vn -0.707107 0.707107 -0.000000
vn -0.653282 0.707107 0.270598
vn -0.653282 0.707107 0.270598
vn -0.500000 0.707107 0.500000
vn -0.500000 0.707107 0.500000
vn -0.270598 0.707107 0.653281
vn -0.270598 0.707107 0.653281
vn 0.000000 0.707107 0.707107
vn 0.000000 0.707107 0.707107
vn 0.270598 0.707107 0.653281
vn 0.270598 0.707107 0.653281
vn 0.500000 0.707107 0.500000
vn 0.500000 0.707107 0.500000
vn 0.653281 0.707107 0.270598
vn 0.653281 0.707107 0.270598
vn 0.707107 0.707107 0.000000
vn 0.707107 0.707107 0.000000
vn 0.075760 0.994244 -0.075760
vn 0.000000 1.000000 -0.000000
vn 0.098985 0.994244 -0.041001
vn 0.041001 0.994244 -0.098985
vn 0.000000 0.994244 -0.107140
vn -0.041001 0.994244 -0.098985
vn -0.075760 0.994244 -0.075760
vn -0.098985 0.994244 -0.041001
vn -0.107140 0.994244 0.000000
vn -0.098985 0.994244 0.041001
vn -0.075760 0.994244 0.075760
vn -0.041001 0.994244 0.098985
vn -0.000000 0.994244 0.107140
vn 0.041001 0.994244 0.098985
vn 0.075760 0.994244 0.075760
vn 0.098985 0.994244 0.041001
vn 0.107140 0.994244 -0.000000
s 1
g Unit_sphere
usemtl blinn2SG1
f 2/102/1 1/103/2 97/104/3
f 3/105/4 2/102/1 97/104/3
f 4/106/5 3/105/4 97/104/3
f 5/107/6 4/106/5 97/104/3
f 6/108/7 5/107/6 97/104/3
f 7/109/8 6/108/7 97/104/3
f 8/110/9 7/109/8 97/104/3
f 9/111/10 8/110/9 97/104/3
f 10/112/11 9/111/10 97/104/3
f 11/113/12 10/112/11 97/104/3
f 12/114/13 11/113/12 97/104/3
f 13/115/14 12/114/13 97/104/3
f 14/116/15 13/115/14 97/104/3
f 15/117/16 14/116/15 97/104/3
f 16/118/17 15/117/16 97/104/3
f 1/103/2 16/118/17 97/104/3
s 2
f 2/1/18 18/2/19 17/3/20 1/4/21
f 3/130/22 19/5/23 18/2/19 2/1/18
f 4/131/24 20/132/25 19/5/23 3/130/22
f 5/8/26 21/9/27 20/7/25 4/6/24
f 6/10/28 22/11/29 21/9/27 5/8/26
f 7/12/30 23/13/31 22/11/29 6/10/28
f 8/14/32 24/15/33 23/13/31 7/12/30
f 9/16/34 25/17/35 24/15/33 8/14/32
f 10/18/36 26/19/37 25/17/35 9/16/34
f 11/20/38 27/21/39 26/19/37 10/18/36
f 12/22/40 28/23/41 27/21/39 11/20/38
f 13/24/42 29/25/43 28/23/41 12/22/40
f 14/26/44 30/27/45 29/25/43 13/24/42
f 15/28/46 31/29/47 30/27/45 14/26/44
f 16/30/48 32/31/49 31/29/47 15/28/46
f 1/4/21 17/3/20 32/31/49 16/30/48
s 3
f 18/2/50 34/32/51 33/33/52 17/3/53
f 19/5/54 35/34/55 34/32/51 18/2/50
f 20/132/56 36/133/57 35/34/55 19/5/54
f 21/9/58 37/36/59 36/35/57 20/7/56
f 22/11/60 38/37/61 37/36/59 21/9/58
f 23/13/62 39/38/63 38/37/61 22/11/60
f 24/15/64 40/39/65 39/38/63 23/13/62
f 25/17/66 41/40/67 40/39/65 24/15/64
f 26/19/68 42/41/69 41/40/67 25/17/66
f 27/21/70 43/42/71 42/41/69 26/19/68
f 28/23/72 44/43/73 43/42/71 27/21/70
f 29/25/74 45/44/75 44/43/73 28/23/72
f 30/27/76 46/45/77 45/44/75 29/25/74
f 31/29/78 47/46/79 46/45/77 30/27/76
f 32/31/80 48/47/81 47/46/79 31/29/78
f 17/3/53 33/33/52 48/47/81 32/31/80
s 4
f 34/32/82 50/48/83 49/49/84 33/33/85
f 35/34/86 51/50/87 50/48/83 34/32/82
f 36/133/88 52/134/89 51/50/87 35/34/86
f 37/36/90 53/52/91 52/51/89 36/35/88
f 38/37/92 54/53/93 53/52/91 37/36/90
f 39/38/94 55/54/95 54/53/93 38/37/92
f 40/39/96 56/55/97 55/54/95 39/38/94
f 41/40/98 57/56/99 56/55/97 40/39/96
f 42/41/100 58/57/101 57/56/99 41/40/98
f 43/42/102 59/58/103 58/57/101 42/41/100
f 44/43/104 60/59/105 59/58/103 43/42/102
f 45/44/106 61/60/107 60/59/105 44/43/104
f 46/45/108 62/61/109 61/60/107 45/44/106
f 47/46/110 63/62/111 62/61/109 46/45/108
f 48/47/112 64/63/113 63/62/111 47/46/110
f 33/33/85 49/49/84 64/63/113 48/47/112
s 5
f 50/48/114 66/64/115 65/65/116 49/49/117
f 51/50/118 67/66/119 66/64/115 50/48/114
f 52/134/120 68/136/121 67/66/119 51/50/118
f 53/52/122 69/68/123 68/67/121 52/51/120
f 54/53/124 70/69/125 69/68/123 53/52/122
f 55/54/126 71/70/127 70/69/125 54/53/124
f 56/55/128 72/71/129 71/70/127 55/54/126
f 57/56/130 73/72/131 72/71/129 56/55/128
f 58/57/132 74/73/133 73/72/131 57/56/130
f 59/58/134 75/74/135 74/73/133 58/57/132
f 60/59/136 76/75/137 75/74/135 59/58/134
f 61/60/138 77/76/139 76/75/137 60/59/136
f 62/61/140 78/77/141 77/76/139 61/60/138
f 63/62/142 79/78/143 78/77/141 62/61/140
f 64/63/144 80/79/145 79/78/143 63/62/142
f 49/49/117 65/65/116 80/79/145 64/63/144
s 6
f 66/64/146 82/80/147 81/81/148 65/65/149
f 67/66/150 83/82/151 82/80/147 66/64/146
f 68/136/152 84/135/153 83/82/151 67/66/150
f 69/68/154 85/84/155 84/83/153 68/67/152
f 70/69/156 86/85/157 85/84/155 69/68/154
f 71/70/158 87/86/159 86/85/157 70/69/156
f 72/71/160 88/87/161 87/86/159 71/70/158
f 73/72/162 89/88/163 88/87/161 72/71/160
f 74/73/164 90/89/165 89/88/163 73/72/162
f 75/74/166 91/90/167 90/89/165 74/73/164
f 76/75/168 92/91/169 91/90/167 75/74/166
f 77/76/170 93/92/171 92/91/169 76/75/168
f 78/77/172 94/93/173 93/92/171 77/76/170
f 79/78/174 95/94/175 94/93/173 78/77/172
f 80/79/176 96/95/177 95/94/175 79/78/174
f 65/65/149 81/81/148 96/95/177 80/79/176
s 7
f 82/119/178 98/120/179 81/121/180
f 83/122/181 98/120/179 82/119/178
f 84/123/182 98/120/179 83/122/181
f 85/124/183 98/120/179 84/123/182
f 86/125/184 98/120/179 85/124/183
f 87/126/185 98/120/179 86/125/184
f 88/127/186 98/120/179 87/126/185
f 89/128/187 98/120/179 88/127/186
f 90/129/188 98/120/179 89/128/187
f 91/101/189 98/120/179 90/129/188
f 92/100/190 98/120/179 91/101/189
f 93/99/191 98/120/179 92/100/190
f 94/98/192 98/120/179 93/99/191
f 95/97/193 98/120/179 94/98/192
f 96/96/194 98/120/179 95/97/193
f 81/121/180 98/120/179 96/96/194
