# This file uses centimeters as units for non-parametric coordinates.

mtllib Unit_Cone.mtl
g default
v 0.423164 2.726417 3.327089
v 0.299222 3.025639 3.327089
v 0.299222 2.427195 3.327088
v 0.000000 2.303253 3.327089
v -0.299221 2.427195 3.327088
v -0.423163 2.726417 3.327089
v -0.299221 3.025639 3.327089
v 0.000000 3.149581 3.327088
v 0.223783 2.950200 3.519396
v 0.000001 3.042893 3.519396
v -0.223782 2.950200 3.519396
v -0.316476 2.726417 3.519396
v -0.223782 2.502635 3.519396
v 0.000001 2.409941 3.519396
v 0.223783 2.502635 3.519396
v 0.316477 2.726417 3.519396
v 0.000001 2.726417 3.665282
v 1.412580 3.912581 -2.188912
v 1.193644 3.693645 -2.562218
v -0.000000 4.497690 -2.188912
v -0.000000 4.188067 -2.562218
v -1.412580 3.912581 -2.188912
v -1.193645 3.693645 -2.562218
v -1.997690 2.500000 -2.188912
v -1.688068 2.500000 -2.562218
v -1.412580 1.087420 -2.188912
v -1.193645 1.306356 -2.562218
v -0.000000 0.502310 -2.188912
v -0.000000 0.811932 -2.562218
v 1.412580 1.087420 -2.188912
v 1.193644 1.306356 -2.562218
v 1.997690 2.500000 -2.188912
v 1.688068 2.500000 -2.562218
v 0.000001 2.500000 -2.188912
vt 0.754505 0.721777
vt 0.736473 0.765310
vt 0.006053 0.765139
vt 0.071217 0.607819
vt 0.472073 0.582467
vt 0.443996 0.582472
vt 0.361473 0.898076
vt 0.228536 0.953140
vt 0.253128 0.004995
vt 0.095600 0.898076
vt 0.361473 0.632202
vt 0.416537 0.765139
vt 0.376732 0.004855
vt 0.871147 0.004189
vt 0.095600 0.632202
vt 0.228536 0.577138
vt 0.228536 0.765254
vt 0.040535 0.765139
vt 0.841573 0.808844
vt 0.859605 0.765310
vt 0.754505 0.808844
vt 0.798039 0.826876
vt 0.798039 0.811354
vt 0.830597 0.797868
vt 0.844083 0.765310
vt 0.751995 0.765310
vt 0.765481 0.797868
vt 0.798039 0.703744
vt 0.841573 0.721777
vt 0.830597 0.732752
vt 0.765481 0.732752
vt 0.798039 0.719266
vt 0.798039 0.765310
vt 0.228536 0.987623
vt 0.071217 0.922459
vt 0.584381 0.582444
vt 0.556304 0.582439
vt 0.385856 0.922459
vt 0.451020 0.765139
vt 0.228536 0.542655
vt 0.385856 0.607819
vt 0.747543 0.004049
vt 0.129284 0.004858
vt 0.415864 0.582467
vt 0.387732 0.582456
vt 0.005439 0.004524
vt 0.500150 0.582456
vt 0.500336 0.004520
vt 0.623940 0.004186
vt 0.528227 0.582444
vt 0.994751 0.004524
vt 0.612458 0.582456
vn -0.889795 -0.368565 0.269118
vn -0.889795 -0.368565 0.269118
vn -0.889795 -0.368565 0.269118
vn -0.889795 -0.368565 0.269118
vn 0.000000 0.769706 -0.638399
vn 0.544264 0.544264 -0.638399
vn 0.544264 0.544264 -0.638399
vn 0.000000 0.769706 -0.638399
vn -0.544264 0.544264 -0.638399
vn -0.544264 0.544264 -0.638399
vn 0.544264 -0.544264 -0.638398
vn 0.544264 -0.544264 -0.638398
vn 0.769706 -0.000000 -0.638398
vn 0.769706 -0.000000 -0.638398
vn 0.000000 -0.769706 -0.638398
vn -0.544264 -0.544265 -0.638398
vn -0.544264 -0.544265 -0.638398
vn 0.000000 -0.769706 -0.638398
vn -0.000000 0.000000 -1.000000
vn 0.152684 -0.152683 -0.976409
vn 0.000000 -0.215927 -0.976410
vn -0.769706 -0.000000 -0.638398
vn -0.769706 -0.000000 -0.638398
vn 0.152684 0.152683 -0.976409
vn 0.000000 0.215927 -0.976409
vn -0.152684 -0.152684 -0.976410
vn -0.152684 0.152684 -0.976409
vn -0.215927 0.000000 -0.976409
vn 0.215927 0.000000 -0.976409
vn 0.896713 0.371431 0.240718
vn 0.896713 0.371431 0.240718
vn 0.896713 0.371431 0.240718
vn 0.896713 0.371431 0.240718
vn -0.896713 0.371430 0.240718
vn -0.896713 0.371430 0.240718
vn -0.896713 0.371430 0.240718
vn -0.896713 0.371430 0.240718
vn -0.373286 0.901192 0.220251
vn -0.373286 0.901192 0.220251
vn -0.373286 0.901192 0.220251
vn -0.373286 0.901192 0.220251
vn 0.618327 0.618327 0.485122
vn 0.000000 0.874447 0.485122
vn -0.000000 0.674627 0.738159
vn 0.477033 0.477034 0.738159
vn 0.874446 -0.000000 0.485123
vn 0.674626 -0.000000 0.738160
vn 0.373286 0.901192 0.220251
vn 0.373286 0.901192 0.220251
vn 0.373286 0.901192 0.220251
vn 0.373286 0.901192 0.220251
vn -0.618327 0.618327 0.485122
vn -0.874447 -0.000000 0.485122
vn -0.674626 -0.000000 0.738159
vn -0.477033 0.477034 0.738159
vn -0.366378 -0.884516 0.288789
vn -0.366378 -0.884516 0.288789
vn -0.366378 -0.884516 0.288789
vn -0.366378 -0.884516 0.288789
vn 0.366378 -0.884516 0.288789
vn 0.366378 -0.884516 0.288789
vn 0.366378 -0.884516 0.288789
vn 0.366378 -0.884516 0.288789
vn 0.618327 -0.618326 0.485123
vn 0.477033 -0.477033 0.738159
vn 0.889795 -0.368565 0.269118
vn 0.889795 -0.368565 0.269118
vn 0.889795 -0.368565 0.269118
vn 0.889795 -0.368565 0.269118
vn -0.618328 -0.618327 0.485122
vn -0.477034 -0.477033 0.738159
vn -0.000000 -0.874446 0.485123
vn -0.000000 -0.674626 0.738160
vn -0.000000 -0.000000 1.000000
s off
g pCone1
usemtl lambert3SG
f 5/5/1 6/6/2 24/9/3 26/13/4
s 1
f 20/34/5 18/38/6 19/7/7 21/8/8
f 22/35/9 20/34/5 21/8/8 23/10/10
f 30/41/11 31/11/12 33/12/13 32/39/14
f 33/12/13 19/7/7 18/38/6 32/39/14
f 28/40/15 26/4/16 27/15/17 29/16/18
f 30/41/11 28/40/15 29/16/18 31/11/12
s 4
f 34/17/19 23/10/20 21/8/21
s 1
f 25/18/22 24/3/23 22/35/9 23/10/10
f 27/15/17 26/4/16 24/3/23 25/18/22
s 4
f 27/15/24 34/17/19 29/16/25
f 19/7/26 34/17/19 21/8/21
f 34/17/19 31/11/27 29/16/25
f 34/17/19 19/7/26 33/12/28
f 23/10/20 34/17/19 25/18/29
f 34/17/19 27/15/24 25/18/29
f 31/11/27 34/17/19 33/12/28
s off
f 18/14/30 2/36/31 1/37/32 32/42/33
f 22/43/34 24/9/35 6/6/36 7/44/37
f 8/45/38 20/46/39 22/43/40 7/44/41
s 6
f 2/19/42 8/22/43 10/23/44 9/24/45
f 1/20/46 2/19/42 9/24/45 16/25/47
s off
f 18/14/48 20/51/49 8/52/50 2/36/51
s 6
f 7/21/52 6/2/53 12/26/54 11/27/55
f 10/23/44 8/22/43 7/21/52 11/27/55
s off
f 4/47/56 5/5/57 26/13/58 28/48/59
f 30/49/60 3/50/61 4/47/62 28/48/63
s 6
f 3/29/64 1/20/46 16/25/47 15/30/65
s off
f 30/49/66 32/42/67 1/37/68 3/50/69
s 6
f 6/2/53 5/1/70 13/31/71 12/26/54
f 5/1/70 4/28/72 14/32/73 13/31/71
f 4/28/72 3/29/64 15/30/65 14/32/73
f 9/24/45 17/33/74 16/25/47
f 17/33/74 11/27/55 12/26/54
f 13/31/71 17/33/74 12/26/54
f 17/33/74 15/30/65 16/25/47
f 17/33/74 9/24/45 10/23/44
f 11/27/55 17/33/74 10/23/44
f 17/33/74 13/31/71 14/32/73
f 15/30/65 17/33/74 14/32/73
