# This file uses centimeters as units for non-parametric coordinates.

mtllib Unit_Cube_v2.mtl
g default
v -2.500000 -2.350014 2.350014
v -2.350015 -2.499999 2.350014
v -2.350015 -2.350014 2.500000
v 2.350015 -2.499999 2.350014
v 2.500000 -2.350014 2.350014
v 2.350015 -2.350014 2.500000
v -2.350015 2.499999 2.350014
v -2.500000 2.350014 2.350014
v -2.350015 2.350014 2.500000
v 2.500000 2.350014 2.350014
v 2.350015 2.499999 2.350014
v 2.350015 2.350014 2.500000
v -2.350015 2.350014 -2.500000
v -2.500000 2.350014 -2.350014
v -2.350015 2.499999 -2.350014
v 2.500000 2.350014 -2.350014
v 2.350015 2.350014 -2.500000
v 2.350015 2.499999 -2.350014
v -2.350015 -2.499999 -2.350014
v -2.500000 -2.350014 -2.350014
v -2.350015 -2.350014 -2.500000
v 2.500000 -2.350014 -2.350014
v 2.350015 -2.499999 -2.350014
v 2.350015 -2.350014 -2.500000
v -2.500000 -1.500000 2.350014
v -2.350015 -1.500000 2.500000
v 2.500000 -1.500000 2.350014
v 2.350015 -1.500000 2.500000
v -2.500000 -0.500000 2.350014
v -2.350015 -0.500000 2.500000
v 2.500000 -0.500000 2.350014
v 2.350015 -0.500000 2.500000
v -2.500000 0.500002 2.350014
v -2.350015 0.500002 2.500000
v 2.500000 0.500002 2.350014
v 2.350015 0.500002 2.500000
v -2.500000 1.500001 2.350014
v -2.350015 1.500001 2.500000
v 2.500000 1.500001 2.350014
v 2.350015 1.500001 2.500000
v -2.500000 1.500001 -2.350014
v -2.350015 1.500001 -2.500000
v 2.500000 1.500001 -2.350014
v 2.350015 1.500001 -2.500000
v -2.500000 0.500002 -2.350014
v -2.350015 0.500002 -2.500000
v 2.500000 0.500002 -2.350014
v 2.350015 0.500002 -2.500000
v -2.500000 -0.500000 -2.350014
v -2.350015 -0.500000 -2.500000
v 2.500000 -0.500000 -2.350014
v 2.350015 -0.500000 -2.500000
v -2.500000 -1.500000 -2.350014
v -2.350015 -1.500000 -2.500000
v 2.500000 -1.500000 -2.350014
v 2.350015 -1.500000 -2.500000
vt 0.382867 0.760432
vt 0.617133 0.994699
vt 0.133648 0.055145
vt 0.133648 0.012777
vt 0.367915 0.012777
vt 0.632085 0.055145
vt 0.632085 0.012777
vt 0.866352 0.012777
vt 0.367915 0.204676
vt 0.367915 0.247044
vt 0.133648 0.247044
vt 0.382867 0.261995
vt 0.866352 0.204676
vt 0.866352 0.247044
vt 0.632085 0.247044
vt 0.382867 0.511214
vt 0.133648 0.204676
vt 0.367915 0.154832
vt 0.133648 0.154832
vt 0.367915 0.104989
vt 0.632085 0.204676
vt 0.866352 0.154832
vt 0.133648 0.104989
vt 0.367915 0.055145
vt 0.632085 0.154832
vt 0.866352 0.104989
vt 0.632085 0.104989
vt 0.866352 0.055145
vt 0.382867 0.994699
vt 0.375391 0.994699
vt 0.375391 0.760432
vt 0.375391 0.012777
vt 0.382867 0.055145
vt 0.624609 0.994699
vt 0.617133 0.760432
vt 0.624609 0.760432
vt 0.617133 0.012777
vt 0.624609 0.055145
vt 0.375391 0.261995
vt 0.375391 0.496262
vt 0.375391 0.204676
vt 0.382867 0.254520
vt 0.617133 0.254520
vt 0.617133 0.261995
vt 0.624609 0.261995
vt 0.624609 0.247044
vt 0.617133 0.204676
vt 0.375391 0.511214
vt 0.382867 0.553582
vt 0.382867 0.503738
vt 0.617133 0.496262
vt 0.617133 0.503738
vt 0.617133 0.511214
vt 0.624609 0.511214
vt 0.624609 0.553582
vt 0.375391 0.703113
vt 0.382867 0.752956
vt 0.624609 0.745480
vt 0.617133 0.703113
vt 0.375391 0.055145
vt 0.382867 0.104989
vt 0.617133 0.055145
vt 0.624609 0.104989
vt 0.375391 0.104989
vt 0.382867 0.154832
vt 0.617133 0.104989
vt 0.624609 0.154832
vt 0.375391 0.154832
vt 0.382867 0.204676
vt 0.617133 0.154832
vt 0.624609 0.204676
vt 0.375391 0.553582
vt 0.382867 0.603425
vt 0.617133 0.553582
vt 0.624609 0.603425
vt 0.375391 0.603425
vt 0.382867 0.653269
vt 0.617133 0.603425
vt 0.624609 0.653269
vt 0.375391 0.653269
vt 0.382867 0.703113
vt 0.617133 0.653269
vt 0.624609 0.703113
vt 0.382867 0.005301
vt 0.382867 0.012777
vt 0.617133 0.005301
vt 0.624609 0.012777
vt 0.375391 0.247044
vt 0.382867 0.247044
vt 0.617133 0.247044
vt 0.382867 0.496262
vt 0.624609 0.496262
vt 0.375391 0.745480
vt 0.382867 0.745480
vt 0.617133 0.752956
vt 0.617133 0.745480
vn 0.000000 0.000000 1.000000
vn 0.000000 0.000000 1.000000
vn 0.000000 0.000000 1.000000
vn 0.000000 0.000000 1.000000
vn 0.000000 0.000000 1.000000
vn 0.000000 0.000000 1.000000
vn 0.000000 0.000000 1.000000
vn 0.000000 0.000000 1.000000
vn 0.000000 0.000000 -1.000000
vn 0.000000 0.000000 -1.000000
vn 0.000000 0.000000 -1.000000
vn 0.000000 0.000000 -1.000000
vn 0.000000 0.000000 -1.000000
vn 0.000000 0.000000 -1.000000
vn 0.000000 0.000000 -1.000000
vn 0.000000 0.000000 -1.000000
vn 1.000000 0.000000 0.000000
vn 1.000000 0.000000 0.000000
vn 1.000000 0.000000 0.000000
vn 1.000000 0.000000 0.000000
vn 1.000000 0.000000 0.000000
vn 1.000000 0.000000 0.000000
vn 1.000000 0.000000 0.000000
vn 1.000000 0.000000 0.000000
vn -1.000000 0.000000 0.000000
vn -1.000000 0.000000 0.000000
vn -1.000000 0.000000 0.000000
vn -1.000000 0.000000 0.000000
vn -1.000000 0.000000 0.000000
vn -1.000000 0.000000 0.000000
vn -1.000000 0.000000 0.000000
vn -1.000000 0.000000 0.000000
vn 0.000000 -1.000000 0.000000
vn 0.000000 -1.000000 0.000000
vn 0.000000 -1.000000 0.000000
vn 0.000000 -1.000000 0.000000
vn 0.000000 0.000000 1.000000
vn 0.000000 0.000000 1.000000
vn -1.000000 0.000000 0.000000
vn -1.000000 0.000000 0.000000
vn 1.000000 0.000000 0.000000
vn 1.000000 0.000000 0.000000
vn -1.000000 0.000000 0.000000
vn -1.000000 0.000000 0.000000
vn 0.000000 0.000000 1.000000
vn 0.000000 0.000000 1.000000
vn 0.000000 1.000000 0.000000
vn 0.000000 1.000000 0.000000
vn 0.000000 1.000000 0.000000
vn 0.000000 1.000000 0.000000
vn 1.000000 0.000000 0.000000
vn 1.000000 0.000000 0.000000
vn 0.000000 0.000000 -1.000000
vn 0.000000 0.000000 -1.000000
vn 0.000000 0.000000 -1.000000
vn 0.000000 0.000000 -1.000000
vn -0.476510 -0.738836 0.476508
vn -0.738834 -0.476512 0.476509
vn -0.738834 -0.476512 -0.476509
vn -0.476510 -0.738836 -0.476508
vn -0.476511 -0.476512 0.738832
vn 0.476510 -0.738836 0.476508
vn 0.476511 -0.476512 0.738832
vn -0.707108 0.000000 0.707105
vn -0.707108 0.000000 0.707105
vn 0.738834 -0.476512 0.476509
vn 0.476510 -0.738836 -0.476508
vn 0.738834 -0.476512 -0.476509
vn 0.707108 0.000000 0.707105
vn 0.707108 0.000000 0.707105
vn -0.738835 0.476511 0.476508
vn -0.476511 0.738835 0.476509
vn -0.476511 0.738835 -0.476509
vn -0.738835 0.476511 -0.476508
vn -0.476512 0.476511 0.738833
vn -0.707108 0.000000 0.707105
vn -0.707108 0.000000 0.707105
vn 0.476512 0.476511 0.738833
vn 0.476511 0.738835 0.476509
vn 0.738835 0.476511 0.476508
vn 0.738835 0.476511 -0.476508
vn 0.476511 0.738835 -0.476509
vn 0.707108 0.000000 0.707105
vn 0.707108 0.000000 0.707105
vn -0.476512 0.476511 -0.738833
vn -0.707108 0.000000 -0.707105
vn -0.707108 0.000000 -0.707105
vn 0.476512 0.476511 -0.738833
vn 0.707108 0.000000 -0.707105
vn 0.707108 0.000000 -0.707105
vn -0.476511 -0.476512 -0.738832
vn -0.707108 0.000000 -0.707105
vn -0.707108 0.000000 -0.707105
vn 0.476511 -0.476512 -0.738832
vn 0.707108 0.000000 -0.707105
vn 0.707108 0.000000 -0.707105
vn -0.707108 0.000000 0.707105
vn -0.707108 0.000000 0.707105
vn 0.707108 0.000000 0.707105
vn 0.707108 0.000000 0.707105
vn -0.707108 0.000000 0.707105
vn -0.707108 0.000000 0.707105
vn 0.707108 0.000000 0.707105
vn 0.707108 0.000000 0.707105
vn -0.707108 0.000000 -0.707105
vn -0.707108 0.000000 -0.707105
vn 0.707108 0.000000 -0.707105
vn 0.707108 0.000000 -0.707105
vn -0.707108 0.000000 -0.707105
vn -0.707108 0.000000 -0.707105
vn 0.707108 0.000000 -0.707105
vn 0.707108 0.000000 -0.707105
s 1
g Unit_cube
usemtl blinn2SG
f 30/61/1 26/33/2 28/62/3 32/66/4
f 34/65/5 30/61/1 32/66/4 36/70/6
f 38/69/7 34/65/5 36/70/6 40/47/8
s 2
f 46/73/9 42/49/10 44/74/11 48/78/12
f 50/77/13 46/73/9 48/78/12 52/82/14
f 54/81/15 50/77/13 52/82/14 56/59/16
s 3
f 31/27/17 27/6/18 55/28/19 51/26/20
f 35/25/21 31/27/17 51/26/20 47/22/22
f 39/21/23 35/25/21 47/22/22 43/13/24
s 4
f 49/23/25 53/3/26 25/24/27 29/20/28
f 45/19/29 49/23/25 29/20/28 33/18/30
f 41/17/31 45/19/29 33/18/30 37/9/32
s off
f 19/1/33 23/35/34 4/2/35 2/29/36
s 1
f 26/33/2 3/85/37 6/37/38 28/62/3
s 4
f 53/3/26 20/4/39 1/5/40 25/24/27
s 3
f 27/6/18 5/7/41 22/8/42 55/28/19
s 4
f 37/9/32 8/10/43 14/11/44 41/17/31
s 1
f 40/47/8 12/90/45 9/89/46 38/69/7
s off
f 11/44/47 18/51/48 15/91/49 7/12/50
s 3
f 43/13/24 16/14/51 10/15/52 39/21/23
s 2
f 42/49/10 13/16/53 17/53/54 44/74/11
f 56/59/16 24/96/55 21/94/56 54/81/15
s 5
f 2/29/57 1/30/58 20/31/59 19/1/60
f 3/85/61 2/84/57 4/86/62 6/37/63
f 1/32/58 3/85/61 26/33/64 25/60/65
f 5/34/66 4/2/62 23/35/67 22/36/68
f 6/37/63 5/87/66 27/38/69 28/62/70
f 8/39/71 7/12/72 15/91/73 14/40/74
f 9/89/75 8/88/71 37/41/76 38/69/77
f 7/42/72 9/89/75 12/90/78 11/43/79
f 11/44/79 10/45/80 16/92/81 18/51/82
f 10/46/80 12/90/78 40/47/83 39/71/84
f 14/48/74 13/16/85 42/49/86 41/72/87
f 13/50/85 15/91/73 18/51/82 17/52/88
f 17/53/88 16/54/81 43/55/89 44/74/90
f 21/94/91 20/93/59 53/56/92 54/81/93
f 19/57/60 21/94/91 24/96/94 23/95/67
f 22/58/68 24/96/94 56/59/95 55/83/96
f 25/60/65 26/33/64 30/61/97 29/64/98
f 28/62/70 27/38/69 31/63/99 32/66/100
f 29/64/98 30/61/97 34/65/101 33/68/102
f 32/66/100 31/63/99 35/67/103 36/70/104
f 33/68/102 34/65/101 38/69/77 37/41/76
f 36/70/104 35/67/103 39/71/84 40/47/83
f 41/72/87 42/49/86 46/73/105 45/76/106
f 44/74/90 43/55/89 47/75/107 48/78/108
f 45/76/106 46/73/105 50/77/109 49/80/110
f 48/78/108 47/75/107 51/79/111 52/82/112
f 49/80/110 50/77/109 54/81/93 53/56/92
f 52/82/112 51/79/111 55/83/96 56/59/95
f 1/32/58 2/84/57 3/85/61
f 4/86/62 5/87/66 6/37/63
f 7/42/72 8/88/71 9/89/75
f 10/46/80 11/43/79 12/90/78
f 13/50/85 14/40/74 15/91/73
f 16/92/81 17/52/88 18/51/82
f 19/57/60 20/93/59 21/94/91
f 22/58/68 23/95/67 24/96/94
